<?xml version="1.0" encoding="utf-8"?>
<!-- Generator: Adobe Illustrator 27.9.0, SVG Export Plug-In . SVG Version: 6.00 Build 0)  -->
<svg version="1.1" id="Layer_1" xmlns="http://www.w3.org/2000/svg" xmlns:xlink="http://www.w3.org/1999/xlink" x="0px" y="0px"
	 viewBox="0 0 363.8 363.8" style="enable-background:new 0 0 363.8 363.8;" xml:space="preserve">
<style type="text/css">
	.st0{fill-rule:evenodd;clip-rule:evenodd;fill:#53BE96;}
	.st1{fill-rule:evenodd;clip-rule:evenodd;fill:#FFFFFF;}
</style>
<path class="st0" d="M0.1,181.9C0.1,81.5,81.5,0.1,181.9,0.1s181.8,81.4,181.8,181.8s-81.4,181.8-181.8,181.8S0.1,282.3,0.1,181.9z"
	/>
<path id="Point_00000150069802332988272220000013568661807671119767_" class="st1" d="M255.1,83.4c-7.6,0-13.7,6.1-13.7,13.7
	s6.1,13.7,13.7,13.7s13.7-6.1,13.7-13.7C268.9,89.5,262.8,83.4,255.1,83.4z"/>
<circle id="Point" class="st1" cx="103.8" cy="263" r="13.7"/>
<path id="Line" class="st1" d="M303.7,173.2c-0.2-2.4-2.2-4.3-4.7-4.3h-21.9h-90.2h-100c6.3-46.9,46.5-83.1,95.1-83.1
	c10.6,0,20.8,1.7,30.4,4.9c2.3,0.8,4.9-0.4,5.8-2.7l6-15.6c1-2.5-0.3-5.3-2.8-6.1c-12.3-4.2-25.6-6.5-39.3-6.5
	c-67.4,0-122,54.6-122,122c0,2.9,0.1,5.9,0.3,8.8c0.2,2.4,2.2,4.3,4.7,4.3h21.9h90.2h100c-6.4,46.8-46.5,82.9-95.1,82.9
	c-12.6,0-24.6-2.4-35.6-6.8c-2.3-0.9-5,0.1-6,2.3l-7.1,15.1c-1.1,2.4,0,5.3,2.4,6.3c14.3,5.8,29.8,9.1,46.2,9.1
	c67.4,0,122-54.6,122-122C304,178.9,303.9,176.1,303.7,173.2z"/>
</svg>
