<svg xmlns="http://www.w3.org/2000/svg" xmlns:xlink="http://www.w3.org/1999/xlink" width="363.8" height="363.8">
  <defs>
    <clipPath id="b">
      <use xlink:href="#a" fill-rule="evenodd" clip-rule="evenodd"/>
    </clipPath>
    <path id="a" d="M363.8 0v363.8H0V0h363.8Z"/>
  </defs>
  <g clip-path="url(#b)">
    <path fill="none" d="M363.8 0v363.8H0V0h363.8Z"/>
    <path fill="#53BE96" fill-rule="evenodd" d="M.1 181.9C.1 81.495 81.495.1 181.9.1c100.405 0 181.8 81.395 181.8 181.8 0 100.405-81.395 181.8-181.8 181.8C81.495 363.7.1 282.305.1 181.9Z"/>
    <path fill="#FFF" fill-rule="evenodd" d="M63.9 155.2c-.7-1.1-.9-2.3-.5-3.5 13.8-53.6 62.1-91 117.4-91.1 13.6 0 27 2.2 39.8 6.7 2.4.9 3.7 3.5 2.8 6l-6 15.7c-.9 2.3-3.4 3.4-5.8 2.6-10-3.4-20.4-5.2-30.9-5.2-21.8 0-42.9 7.5-59.8 21.3-15.8 12.8-27.2 30.3-32.4 50-.6 2.4-3 3.9-5.4 3.3l-16.4-3.7c-1.1-.2-2.2-1-2.8-2.1Zm236 38.8c-.8-1-1.9-1.6-3.1-1.7l-16.7-1.7c-2.5-.3-4.7 1.5-5 3.9-7 52.2-55.1 88.8-107.2 81.7-7.2-1-14.3-2.8-21.1-5.4-2.3-.9-4.9.3-5.8 2.6l-6.5 15.5c-1 2.3.1 5 2.4 6 .1 0 .1.1.2.1 62.5 24 132.6-7.1 156.7-69.6 3.5-9.1 5.9-18.5 7.1-28.1.1-1.2-.2-2.4-1-3.3Zm-91.8 22.5v-16.8c0-2.5-2-4.6-4.6-4.6h-136c-2.5 0-4.6 2-4.6 4.5V216.5c0 2.5 2 4.6 4.6 4.6h136c2.5 0 4.5-2 4.6-4.6Zm-52.3-77.6v16.8c0 2.5 2 4.6 4.6 4.6h136c2.5 0 4.5-2.1 4.5-4.6v-16.8c0-2.5-2-4.6-4.6-4.6h-136c-2.5 0-4.5 2.1-4.5 4.6Zm99.3-55.5c-7.6 0-13.7 6.1-13.7 13.7s6.1 13.7 13.7 13.7 13.7-6.1 13.7-13.7c.1-7.6-6-13.7-13.7-13.7ZM103.8 249.3c-7.6 0-13.7 6.1-13.7 13.7s6.1 13.7 13.7 13.7 13.7-6.1 13.7-13.7-6.1-13.7-13.7-13.7Z"/>
  </g>
</svg>